<?xml version="1.0" encoding="utf-8"?>
<!-- Generator: Adobe Illustrator 19.1.0, SVG Export Plug-In . SVG Version: 6.00 Build 0)  -->
<svg version="1.1"
	 id="svg2" sodipodi:docname="nginx_logo_release.svg" inkscape:version="0.48.3.1 r9886" xmlns:dc="http://purl.org/dc/elements/1.1/" xmlns:cc="http://creativecommons.org/ns#" xmlns:rdf="http://www.w3.org/1999/02/22-rdf-syntax-ns#" xmlns:svg="http://www.w3.org/2000/svg" xmlns:sodipodi="http://sodipodi.sourceforge.net/DTD/sodipodi-0.dtd" xmlns:inkscape="http://www.inkscape.org/namespaces/inkscape"
	 xmlns="http://www.w3.org/2000/svg" xmlns:xlink="http://www.w3.org/1999/xlink" x="0px" y="0px" viewBox="-220.6 384.8 27.1 24.2"
	 style="enable-background:new -220.6 384.8 27.1 24.2;" xml:space="preserve">
<style type="text/css">
	.st0{display:none;}
	.st1{display:inline;}
	.st2{fill:none;stroke:#000000;}
	.st3{fill:#009900;}
</style>
<sodipodi:namedview  fit-margin-bottom="0" fit-margin-right="0" inkscape:window-maximized="1" inkscape:window-y="24" inkscape:current-layer="layer1" inkscape:pageshadow="2" inkscape:document-units="px" inkscape:pageopacity="0.0" inkscape:window-height="1003" inkscape:window-x="0" inkscape:window-width="1920" fit-margin-left="0" fit-margin-top="0" showgrid="false" inkscape:cy="48.217226" inkscape:cx="23.971822" inkscape:zoom="2.8284271" borderopacity="1.0" bordercolor="#666666" pagecolor="#ffffff" id="base">
	</sodipodi:namedview>
<g id="layer2" transform="translate(-11.56225,-11.12422)" inkscape:groupmode="layer" inkscape:label="Typography" class="st0">
	<g id="g3910" class="st1">
		<path id="path3872" inkscape:connector-curvature="0" class="st2" d="M-243.2,395.5h156.8"/>
		<path id="path3872-6" inkscape:connector-curvature="0" class="st2" d="M-243.3,420.5h156.8"/>
		<path id="path3872-6-8" inkscape:connector-curvature="0" class="st2" d="M-257.4,408h156.8"/>
	</g>
</g>
<path id="path2996-0" sodipodi:nodetypes="cccccccccccccccscccccccccccccc" inkscape:connector-curvature="0" class="st3" d="
	M-213.9,384.9l-0.7,1.3l-5.3,9.7l-0.7,1.2l0.7,1.2l5.3,9.3l0.7,1.3h1.5h10.9h1.6l0.7-1.4l4-8l1.8-3.6h-4l-10.2,0
	c-1.3,0-2.5,1.2-2.5,2.5c0,1.3,1.2,2.5,2.5,2.5l6.1,0l-1.5,3h-7.9l-3.9-6.9l3.9-7.1h8.4l2,4h5l-3.2-7.6l-0.7-1.4h-1.6h-11.4H-213.9z
	"/>
</svg>
