<?xml version="1.0" encoding="utf-8"?>
<!-- Generator: Adobe Illustrator 18.0.0, SVG Export Plug-In . SVG Version: 6.00 Build 0)  -->
<!DOCTYPE svg PUBLIC "-//W3C//DTD SVG 1.1//EN" "http://www.w3.org/Graphics/SVG/1.1/DTD/svg11.dtd">
<svg version="1.1" id="Layer_1" xmlns="http://www.w3.org/2000/svg" xmlns:xlink="http://www.w3.org/1999/xlink" x="0px" y="0px"
	 width="192px" height="192px" viewBox="0 0 192 192" enable-background="new 0 0 192 192" xml:space="preserve">
<path fill="none" d="M0,0h192v192H0V0z"/>
<g>
	<g>
		<path fill="#E1E1E1" d="M184,44v116c0,6.63-5.37,12-12,12H20c-6.63,0-12-5.37-12-12V44H184z"/>
		<path fill="#C2C2C2" d="M20,20h152c6.63,0,12,5.37,12,12v12H8V32C8,25.37,13.37,20,20,20z"/>
		<path fill="#FFFFFF" fill-opacity="0.2" d="M172,20H20c-6.6,0-12,5.4-12,12v1c0-6.6,5.4-12,12-12h152c6.6,0,12,5.4,12,12v-1
			C184,25.4,178.6,20,172,20z"/>
		<path fill="#212121" fill-opacity="0.1" d="M8,44h176v1H8V44z"/>
		<path fill="#4285F4" d="M95.93,80c-35.36,0-63.9,28.65-63.9,64c0,1.34-0.08,3,0,4h27.88c-0.15-1,0-2.65,0-4
			c0-19.88,16.13-36,36.02-36c6.92,0,13.39,1.96,18.88,5.34l20.1-20.1C124.11,84.94,110.6,80,95.93,80z"/>
		<path fill="#F44336" d="M134.91,93.24l-20.1,20.1c10.28,6.34,17.14,17.7,17.14,30.66c0,1.35,0.15,3,0,4h28.01c0.08-1,0-2.66,0-4
			C159.96,123.32,150.14,104.94,134.91,93.24z"/>
		<circle fill="#EEEEEE" cx="24" cy="32" r="4"/>
		<circle fill="#EEEEEE" cx="40" cy="32" r="4"/>
		<path fill="#212121" fill-opacity="0.1" d="M172.02,171H19.96c-6.6,0-12-5.4-12-12v1c0,6.6,5.4,12,12,12h152.06
			c6.6,0,12-5.4,12-12v-1C184.02,165.6,178.62,171,172.02,171L172.02,171z"/>
		<path fill="#9E9E9E" d="M135.12,95.67c0.24-0.33,0.38-0.73,0.38-1.17c0-1.1-0.9-2-2-2c-0.47,0-0.89,0.17-1.23,0.44l-43.61,33.57
			c-2.84,2.19-4.67,5.62-4.67,9.49c0,6.63,5.37,12,12,12c4.35,0,8.14-2.32,10.25-5.78l0.01,0.01L135.12,95.67L135.12,95.67z"/>
		<path opacity="0.2" fill="#FFFFFF" enable-background="new    " d="M88.66,127.51l43.61-33.58c0.34-0.27,0.77-0.44,1.23-0.44
			c0.92,0,1.69,0.63,1.92,1.48c0.04-0.15,0.08-0.31,0.08-0.48c0-1.1-0.9-2-2-2c-0.47,0-0.89,0.17-1.23,0.44L88.66,126.5
			c-2.84,2.19-4.67,5.62-4.67,9.49c0,0.18,0.02,0.36,0.03,0.54C84.16,132.87,85.94,129.62,88.66,127.51z"/>
		<path opacity="0.2" fill="#212121" enable-background="new    " d="M135.12,95.67l-28.87,46.56l-0.01-0.01
			c-2.11,3.46-5.9,5.78-10.25,5.78c-6.45,0-11.69-5.09-11.97-11.46c-0.01,0.15-0.03,0.3-0.03,0.46c0,6.63,5.37,12,12,12
			c4.35,0,8.14-2.32,10.25-5.78l0.01,0.01l28.87-46.56c0.24-0.33,0.38-0.73,0.38-1.17c0-0.18-0.03-0.36-0.08-0.52
			C135.36,95.23,135.26,95.46,135.12,95.67z"/>
		
			<linearGradient id="SVGID_1_" gradientUnits="userSpaceOnUse" x1="113.7175" y1="72.7175" x2="170.8495" y2="15.5855" gradientTransform="matrix(1 0 0 -1 0 194)">
			<stop  offset="0" style="stop-color:#212121;stop-opacity:0.2"/>
			<stop  offset="1" style="stop-color:#212121;stop-opacity:0"/>
		</linearGradient>
		<path fill="url(#SVGID_1_)" d="M135.09,93.3c0.26,0.34,0.41,0.75,0.41,1.2c0,0.44-0.14,0.84-0.38,1.17l-28.87,46.56l-0.01-0.01
			c-2.11,3.46-5.9,5.78-10.25,5.78c-2.97,0-5.68-1.08-7.78-2.87L115.08,172H172c6.63,0,12-5.37,12-12v-17.79L135.09,93.3z"/>
	</g>
	
		<radialGradient id="SVGID_2_" cx="12.333" cy="171.333" r="219.577" gradientTransform="matrix(1 0 0 -1 0 194)" gradientUnits="userSpaceOnUse">
		<stop  offset="0" style="stop-color:#FFFFFF;stop-opacity:0.1"/>
		<stop  offset="1" style="stop-color:#FFFFFF;stop-opacity:0"/>
	</radialGradient>
	<path fill="url(#SVGID_2_)" d="M184,32c0-6.63-5.37-12-12-12H20c-6.63,0-12,5.37-12,12v128c0,6.63,5.37,12,12,12h152
		c6.63,0,12-5.37,12-12V32z"/>
</g>
</svg>
